<svg xmlns="http://www.w3.org/2000/svg" version="1.1" xmlns:xlink="http://www.w3.org/1999/xlink" xmlns:svgjs="http://svgjs.com/svgjs" width="260" height="300" preserveAspectRatio="none" viewBox="0 0 260 320">
    <g mask="url(&quot;#SvgjsMask2257&quot;)" fill="none">
        <use xlink:href="#SvgjsG2263" transform="translate(0, 0)" fill="rgba(11, 30, 81, 1)"></use>
    </g>
    <defs>
        <mask id="SvgjsMask2257">
            <rect width="260" height="320" fill="#ffffff"></rect>
        </mask>
        <g id="SvgjsG2260">
            <path d="M0.778 8.111a7.222 7.222 0 1 0 14.444 0 7.222 7.222 0 1 0-14.444 0"></path>
        </g>
        <g id="SvgjsG2259">
            <path d="M2.133 2.133h11.734v11.734H2.133z"></path>
        </g>
        <g id="SvgjsG2258">
            <path d="M0.031 14.203L8 0.4l7.969 13.803z"></path>
        </g>
        <g id="SvgjsG2261">
            <path d="M15.818 14.884H0.137L7.978 1.3 15.818 14.884zM3.252 13.084h9.45L7.978 4.899 3.252 13.084z" fill-rule="evenodd"></path>
        </g>
        <g id="SvgjsG2262">
            <path d="M8 2.134v11.732c-3.234 0-5.866-2.631-5.866-5.866 0-3.234 2.631-5.865 5.866-5.866m0-1.466c-4.05 0-7.333 3.283-7.333 7.332s3.283 7.333 7.333 7.334 7.333-3.284 7.333-7.334-3.284-7.332-7.333-7.332z"></path>
        </g>
        <g id="SvgjsG2263">
            <use xlink:href="#SvgjsG2258" transform="translate(0, 0) scale(2.9)" fill="rgba(11, 30, 81, 1)"></use>
            <use xlink:href="#SvgjsG2259" transform="translate(0, 55.1) scale(2.9)" fill="rgba(32, 209, 254, 1)"></use>
            <use xlink:href="#SvgjsG2260" transform="translate(0, 110.2) scale(2.9)" fill="rgba(68, 46, 178, 1)"></use>
            <use xlink:href="#SvgjsG2259" transform="translate(0, 165.3) scale(2.9)" fill="rgba(32, 209, 254, 1)"></use>
            <use xlink:href="#SvgjsG2260" transform="translate(0, 220.4) scale(2.9)" fill="rgba(11, 30, 81, 1)"></use>
            <use xlink:href="#SvgjsG2260" transform="translate(0, 275.5) scale(2.9)" fill="rgba(68, 46, 178, 1)"></use>
            <use xlink:href="#SvgjsG2261" transform="translate(55.1, 0) scale(2.9)" fill="rgba(68, 46, 178, 1)"></use>
            <use xlink:href="#SvgjsG2258" transform="translate(55.1, 55.1) scale(2.9)" fill="rgba(68, 46, 178, 1)"></use>
            <use xlink:href="#SvgjsG2258" transform="translate(55.1, 110.2) scale(2.9)" fill="rgba(173, 176, 179, 1)"></use>
            <use xlink:href="#SvgjsG2262" transform="translate(55.1, 165.3) scale(2.9)" fill="rgba(32, 209, 254, 1)"></use>
            <use xlink:href="#SvgjsG2258" transform="translate(55.1, 220.4) scale(2.9)" fill="rgba(173, 176, 179, 1)"></use>
            <use xlink:href="#SvgjsG2260" transform="translate(55.1, 275.5) scale(2.9)" fill="rgba(32, 209, 254, 1)"></use>
            <use xlink:href="#SvgjsG2261" transform="translate(110.2, 0) scale(2.9)" fill="rgba(173, 176, 179, 1)"></use>
            <use xlink:href="#SvgjsG2258" transform="translate(110.2, 55.1) scale(2.9)" fill="rgba(68, 46, 178, 1)"></use>
            <use xlink:href="#SvgjsG2259" transform="translate(110.2, 110.2) scale(2.9)" fill="rgba(32, 209, 254, 1)"></use>
            <use xlink:href="#SvgjsG2261" transform="translate(110.2, 165.3) scale(2.9)" fill="rgba(11, 30, 81, 1)"></use>
            <use xlink:href="#SvgjsG2262" transform="translate(110.2, 220.4) scale(2.9)" fill="rgba(11, 30, 81, 1)"></use>
            <use xlink:href="#SvgjsG2261" transform="translate(110.2, 275.5) scale(2.9)" fill="rgba(32, 209, 254, 1)"></use>
            <use xlink:href="#SvgjsG2260" transform="translate(165.3, 0) scale(2.9)" fill="rgba(11, 30, 81, 1)"></use>
            <use xlink:href="#SvgjsG2262" transform="translate(165.3, 55.1) scale(2.9)" fill="rgba(11, 30, 81, 1)"></use>
            <use xlink:href="#SvgjsG2260" transform="translate(165.3, 110.2) scale(2.9)" fill="rgba(32, 209, 254, 1)"></use>
            <use xlink:href="#SvgjsG2258" transform="translate(165.3, 165.3) scale(2.9)" fill="rgba(68, 46, 178, 1)"></use>
            <use xlink:href="#SvgjsG2258" transform="translate(165.3, 220.4) scale(2.9)" fill="rgba(68, 46, 178, 1)"></use>
            <use xlink:href="#SvgjsG2258" transform="translate(165.3, 275.5) scale(2.9)" fill="rgba(32, 209, 254, 1)"></use>
            <use xlink:href="#SvgjsG2262" transform="translate(220.4, 0) scale(2.9)" fill="rgba(68, 46, 178, 1)"></use>
            <use xlink:href="#SvgjsG2259" transform="translate(220.4, 55.1) scale(2.9)" fill="rgba(173, 176, 179, 1)"></use>
            <use xlink:href="#SvgjsG2260" transform="translate(220.4, 110.2) scale(2.9)" fill="rgba(32, 209, 254, 1)"></use>
            <use xlink:href="#SvgjsG2259" transform="translate(220.4, 165.3) scale(2.9)" fill="rgba(32, 209, 254, 1)"></use>
            <use xlink:href="#SvgjsG2261" transform="translate(220.4, 220.4) scale(2.9)" fill="rgba(173, 176, 179, 1)"></use>
            <use xlink:href="#SvgjsG2259" transform="translate(220.4, 275.5) scale(2.9)" fill="rgba(173, 176, 179, 1)"></use>
        </g>
    </defs>
</svg>